<svg width="201" height="57" viewBox="0 0 201 57" fill="none" xmlns="http://www.w3.org/2000/svg">
<path d="M25.7404 34.1778C31.8195 44.7072 17.0319 49.8513 12.9198 51.3577C19.7254 51.5103 36.7281 43.3325 32.107 33.6585C25.5419 19.9148 27.9826 16.6843 30.7836 15.3565C26.5696 17.243 19.6613 23.6485 25.7404 34.1778Z" fill="url(#paint0_linear_244_2258)"/>
<path d="M14.8777 30.983C21.7536 44.7555 15.2528 49.9482 10.2712 52.1094C18.4145 52.0517 30.5119 43.6738 25.349 30.983C18.0144 12.9537 21.3915 5.66915 24.7963 3.7956C19.6781 6.46641 8.00183 17.2106 14.8777 30.983Z" fill="url(#paint1_linear_244_2258)"/>
<path d="M7.40803 37.6717C13.4871 48.201 14.6046 50.3214 10.4925 51.8277C17.298 51.9804 18.5487 43.0384 13.9275 33.3643C7.36245 19.6207 14.2623 16.5965 16.5226 14.6281C12.3086 16.5146 1.32892 27.1423 7.40803 37.6717Z" fill="url(#paint2_linear_244_2258)"/>
<g filter="url(#filter0_f_244_2258)">
<path d="M18.2448 16.9773C17.4878 19.379 18.2029 25.0242 21.0642 31.7005C22.7088 35.538 22.761 40.9939 21.0642 41.8815" stroke="white" stroke-width="1.12381" stroke-linecap="round"/>
</g>
<g filter="url(#filter1_f_244_2258)">
<path d="M26.2333 23.5557C25.7159 25.2021 27.3319 30.5695 29.2876 35.1463C30.4118 37.777 28.8812 43.1525 27.7214 43.7609" stroke="white" stroke-width="0.936508" stroke-linecap="round"/>
</g>
<g filter="url(#filter2_f_244_2258)">
<path d="M8.24018 25.6704C7.72272 27.3168 9.33871 32.6842 11.2945 37.261C12.4186 39.8917 14.8628 44.2491 13.7029 44.8576" stroke="white" stroke-width="1.12381" stroke-linecap="round"/>
</g>
<path d="M45.2473 40.2642V16.4019H59.9737V19.7426H48.9289V26.6286H59.0874V29.9693H48.9289V40.2642H45.2473ZM63.659 40.2642V16.4019H67.1702V40.2642H63.659ZM80.2555 40.7414C78.5738 40.7414 77.0739 40.4005 75.7558 39.7187C74.4604 39.0142 73.4377 38.0143 72.6878 36.7189C71.9378 35.4235 71.5628 33.8895 71.5628 32.1169V31.6056C71.5628 29.833 71.9378 28.3103 72.6878 27.0377C73.4377 25.7423 74.4604 24.7424 75.7558 24.0378C77.0739 23.3333 78.5738 22.9811 80.2555 22.9811C81.9372 22.9811 83.4371 23.3333 84.7552 24.0378C86.0733 24.7424 87.1074 25.7423 87.8573 27.0377C88.6073 28.3103 88.9823 29.833 88.9823 31.6056V32.1169C88.9823 33.8895 88.6073 35.4235 87.8573 36.7189C87.1074 38.0143 86.0733 39.0142 84.7552 39.7187C83.4371 40.4005 81.9372 40.7414 80.2555 40.7414ZM80.2555 37.6052C81.8009 37.6052 83.0508 37.1166 84.0053 36.1394C84.9825 35.1395 85.4711 33.7645 85.4711 32.0146V31.7078C85.4711 29.958 84.9939 28.5944 84.0394 27.6172C83.0849 26.6172 81.8236 26.1173 80.2555 26.1173C78.7329 26.1173 77.4829 26.6172 76.5057 27.6172C75.5512 28.5944 75.074 29.958 75.074 31.7078V32.0146C75.074 33.7645 75.5512 35.1395 76.5057 36.1394C77.4829 37.1166 78.7329 37.6052 80.2555 37.6052ZM94.9947 40.2642L92.1312 23.4583H95.6424L97.7559 37.912H98.3013L101.233 23.4583H106.926L109.823 37.912H110.369L112.482 23.4583H115.993L113.13 40.2642H107.233L104.335 25.8446H103.79L100.892 40.2642H94.9947ZM127.759 40.7414C126.145 40.7414 124.679 40.4005 123.361 39.7187C122.066 39.037 121.032 38.0484 120.259 36.753C119.509 35.4576 119.134 33.9009 119.134 32.0828V31.6397C119.134 29.8216 119.509 28.2762 120.259 27.0036C121.032 25.7082 122.066 24.7196 123.361 24.0378C124.679 23.3333 126.145 22.9811 127.759 22.9811C129.372 22.9811 130.747 23.2765 131.883 23.8674C133.02 24.4583 133.929 25.2423 134.611 26.2195C135.315 27.1968 135.77 28.2762 135.974 29.458L132.565 30.1738C132.452 29.4239 132.213 28.7421 131.849 28.1285C131.486 27.5149 130.974 27.0263 130.315 26.6627C129.656 26.2991 128.827 26.1173 127.827 26.1173C126.85 26.1173 125.963 26.3445 125.168 26.799C124.395 27.2308 123.782 27.8672 123.327 28.708C122.873 29.5262 122.645 30.5261 122.645 31.7078V32.0146C122.645 33.1964 122.873 34.2077 123.327 35.0486C123.782 35.8894 124.395 36.5257 125.168 36.9575C125.963 37.3893 126.85 37.6052 127.827 37.6052C129.304 37.6052 130.429 37.2302 131.202 36.4803C131.974 35.7076 132.463 34.7304 132.667 33.5486L136.076 34.3327C135.804 35.4917 135.315 36.5598 134.611 37.537C133.929 38.5143 133.02 39.2983 131.883 39.8892C130.747 40.4573 129.372 40.7414 127.759 40.7414ZM140.126 40.2642V16.4019H143.637V25.8446H144.183C144.41 25.4128 144.728 24.9923 145.137 24.5833C145.569 24.1742 146.126 23.8447 146.807 23.5947C147.512 23.322 148.398 23.1856 149.466 23.1856C150.739 23.1856 151.864 23.4697 152.841 24.0378C153.841 24.606 154.625 25.4128 155.193 26.4582C155.761 27.4808 156.045 28.7194 156.045 30.1738V40.2642H152.534V30.4466C152.534 28.9921 152.171 27.924 151.443 27.2422C150.716 26.5377 149.716 26.1854 148.444 26.1854C146.989 26.1854 145.819 26.6627 144.933 27.6172C144.069 28.5717 143.637 29.958 143.637 31.776V40.2642H140.126ZM168.803 40.7414C167.098 40.7414 165.61 40.3892 164.337 39.6846C163.064 38.9574 162.064 37.9461 161.337 36.6507C160.633 35.3326 160.281 33.81 160.281 32.0828V31.6738C160.281 29.9239 160.633 28.4012 161.337 27.1058C162.042 25.7877 163.019 24.7764 164.269 24.0719C165.542 23.3447 167.007 22.9811 168.666 22.9811C170.28 22.9811 171.689 23.3447 172.893 24.0719C174.121 24.7764 175.075 25.765 175.757 27.0377C176.439 28.3103 176.78 29.7989 176.78 31.5033V32.8328H163.86C163.905 34.31 164.394 35.4917 165.326 36.378C166.28 37.2416 167.462 37.6734 168.871 37.6734C170.189 37.6734 171.178 37.378 171.837 36.7871C172.518 36.1962 173.041 35.5144 173.405 34.7418L176.302 36.2417C175.984 36.878 175.518 37.5484 174.905 38.2529C174.314 38.9574 173.53 39.5483 172.553 40.0255C171.575 40.5028 170.325 40.7414 168.803 40.7414ZM163.894 30.1398H173.2C173.109 28.8671 172.655 27.8785 171.837 27.174C171.019 26.4468 169.95 26.0832 168.632 26.0832C167.314 26.0832 166.235 26.4468 165.394 27.174C164.576 27.8785 164.076 28.8671 163.894 30.1398ZM183.407 40.2642V26.4241H178.703V23.4583H183.407V19.7767C183.407 18.7541 183.714 17.9359 184.328 17.3223C184.941 16.7087 185.76 16.4019 186.782 16.4019H191.112V19.3677H187.907C187.248 19.3677 186.919 19.7086 186.919 20.3903V23.4583H191.759V26.4241H186.919V40.2642H183.407ZM195.337 40.7414C194.542 40.7414 193.871 40.4801 193.326 39.9574C192.803 39.4347 192.542 38.7642 192.542 37.9461C192.542 37.128 192.803 36.4689 193.326 35.969C193.871 35.4463 194.542 35.1849 195.337 35.1849C196.132 35.1849 196.791 35.4463 197.314 35.969C197.86 36.4917 198.132 37.1507 198.132 37.9461C198.132 38.7642 197.86 39.4347 197.314 39.9574C196.791 40.4801 196.132 40.7414 195.337 40.7414Z" fill="white"/>
<defs>
<filter id="filter0_f_244_2258" x="13.468" y="12.4819" width="13.3447" height="33.895" filterUnits="userSpaceOnUse" color-interpolation-filters="sRGB">
<feFlood flood-opacity="0" result="BackgroundImageFix"/>
<feBlend mode="normal" in="SourceGraphic" in2="BackgroundImageFix" result="shape"/>
<feGaussianBlur stdDeviation="1.96667" result="effect1_foregroundBlur_244_2258"/>
</filter>
<filter id="filter1_f_244_2258" x="23.0453" y="20.4652" width="9.7254" height="26.3863" filterUnits="userSpaceOnUse" color-interpolation-filters="sRGB">
<feFlood flood-opacity="0" result="BackgroundImageFix"/>
<feBlend mode="normal" in="SourceGraphic" in2="BackgroundImageFix" result="shape"/>
<feGaussianBlur stdDeviation="1.31111" result="effect1_foregroundBlur_244_2258"/>
</filter>
<filter id="filter2_f_244_2258" x="4.20914" y="21.737" width="13.7321" height="27.0541" filterUnits="userSpaceOnUse" color-interpolation-filters="sRGB">
<feFlood flood-opacity="0" result="BackgroundImageFix"/>
<feBlend mode="normal" in="SourceGraphic" in2="BackgroundImageFix" result="shape"/>
<feGaussianBlur stdDeviation="1.68571" result="effect1_foregroundBlur_244_2258"/>
</filter>
<linearGradient id="paint0_linear_244_2258" x1="34.8953" y1="36.02" x2="21.3056" y2="32.3786" gradientUnits="userSpaceOnUse">
<stop stop-color="#FFED91"/>
<stop offset="1" stop-color="#FB4444"/>
</linearGradient>
<linearGradient id="paint1_linear_244_2258" x1="28.9311" y1="31.1235" x2="12.798" y2="26.8006" gradientUnits="userSpaceOnUse">
<stop stop-color="#FFED91"/>
<stop offset="1" stop-color="#FB4444"/>
</linearGradient>
<linearGradient id="paint2_linear_244_2258" x1="18.0413" y1="37.8656" x2="4.45163" y2="34.2243" gradientUnits="userSpaceOnUse">
<stop stop-color="#FFED91"/>
<stop offset="1" stop-color="#FB4444"/>
</linearGradient>
</defs>
</svg>
