<svg width="150" height="150" viewBox="0 0 150 150" fill="none" xmlns="http://www.w3.org/2000/svg">
<path fill-rule="evenodd" clip-rule="evenodd" d="M79.2676 76.7425C78.2047 76.7716 77.3503 77.6273 77.3229 78.6904L76.5178 109.985C76.4702 111.837 78.7496 112.753 79.9965 111.382L109.173 79.3126C110.359 78.0087 109.401 75.9193 107.639 75.9674L79.2676 76.7425ZM119.336 68.1417L71.0022 69.4622C69.9392 69.4912 69.0848 70.347 69.0575 71.41L67.6809 124.919L67.5096 131.578C67.4619 133.43 69.7413 134.346 70.9883 132.975L76.0701 127.39L123.241 75.5412L127.084 71.3171C128.27 70.0132 127.312 67.9238 125.55 67.9719L119.336 68.1417ZM78.783 79.5434C79.8552 79.4619 80.671 78.5473 80.63 77.4729L80.4158 71.8645L78.5849 23.9109L78.3315 17.275C78.261 15.4294 75.9404 14.6574 74.7784 16.093L70.0729 21.9065L26.307 75.9781L22.7083 80.4243C21.6048 81.7876 22.6656 83.8097 24.4144 83.6768L30.59 83.2073L72.2924 80.0369L78.783 79.5434ZM70.0844 72.6499C71.1565 72.5684 71.9724 71.6538 71.9313 70.5793L70.7326 39.1839C70.6621 37.3383 68.3414 36.5664 67.1795 38.002L40.023 71.5531C38.9195 72.9164 39.9803 74.9386 41.7292 74.8056L70.0844 72.6499Z" fill="url(#paint0_linear_340_641)"/>
<circle cx="75.1749" cy="74.818" r="16.5478" transform="rotate(1.47517 75.1749 74.818)" fill="url(#paint1_linear_340_641)"/>
<path d="M84.9792 75.9801C84.9802 76.2563 84.7572 76.4794 84.4811 76.4785L76.9564 76.4535C76.6803 76.4525 76.4573 76.6757 76.4583 76.9518L76.487 84.4764C76.4881 84.7526 76.2651 84.9757 75.989 84.9748L74.1474 84.9687C73.8713 84.9677 73.6466 84.7431 73.6455 84.467L73.6168 76.9424C73.6157 76.6662 73.391 76.4416 73.1149 76.4407L65.5902 76.4157C65.3141 76.4148 65.0894 76.1902 65.0883 75.914L65.0813 74.0725C65.0802 73.7963 65.3032 73.5732 65.5794 73.5742L73.1041 73.5992C73.3802 73.6001 73.6032 73.377 73.6021 73.1008L73.5734 65.5762C73.5724 65.3 73.7954 65.0769 74.0715 65.0778L75.9131 65.084C76.1892 65.0849 76.4139 65.3095 76.415 65.5856L76.4437 73.1103C76.4447 73.3864 76.6695 73.611 76.9456 73.6119L84.4703 73.6369C84.7464 73.6378 84.9711 73.8624 84.9722 74.1386L84.9792 75.9801Z" fill="black"/>
<defs>
<linearGradient id="paint0_linear_340_641" x1="24" y1="14" x2="134.771" y2="119.675" gradientUnits="userSpaceOnUse">
<stop stop-color="white"/>
<stop offset="1" stop-color="#D6D6D6"/>
</linearGradient>
<linearGradient id="paint1_linear_340_641" x1="58.6271" y1="58.2701" x2="90.4817" y2="90.8142" gradientUnits="userSpaceOnUse">
<stop stop-color="white"/>
<stop offset="1" stop-color="#D6D6D6"/>
</linearGradient>
</defs>
</svg>
