<svg width="150" height="150" viewBox="0 0 150 150" fill="none" xmlns="http://www.w3.org/2000/svg">
<path d="M108.5 16.7885C109.018 20.0361 111.842 25.0252 114.854 27.8492C117.773 30.6732 122.338 33.1677 125.35 33.6384C127.657 34.0149 127.61 34.5797 125.35 34.9563C122.103 35.474 117.114 38.298 114.29 41.3103C111.466 44.2284 108.971 48.7939 108.5 51.8062C108.312 52.7946 108.03 53.5947 107.842 53.5947C107.653 53.5947 107.371 52.7946 107.183 51.8062C106.712 48.7939 104.217 44.2284 101.393 41.3103C98.5694 38.298 93.5803 35.474 90.3327 34.9563C88.0735 34.5797 88.0264 34.0149 90.2856 33.6384C93.2979 33.1677 97.628 30.8144 100.687 27.9904C103.794 25.0722 106.665 20.1773 107.183 16.7885C107.371 15.8001 107.653 14.9999 107.842 14.9999C108.03 14.9999 108.312 15.8001 108.5 16.7885Z" fill="url(#paint0_linear_592_298)"/>
<path d="M42.8872 36.0199C43.4049 39.2675 46.2289 44.2566 49.2412 47.0806C52.1594 49.9046 56.7248 52.3992 59.7371 52.8698C62.0434 53.2464 61.9963 53.8112 59.7371 54.1877C56.4895 54.7054 51.5004 57.5294 48.6764 60.5417C45.8524 63.4599 43.3579 68.0254 42.8872 71.0376C42.6989 72.026 42.4165 72.8262 42.2282 72.8262C42.04 72.8262 41.7576 72.026 41.5693 71.0376C41.0986 68.0254 38.6041 63.4599 35.7801 60.5417C32.9561 57.5294 27.967 54.7054 24.7194 54.1877C22.4602 53.8112 22.4131 53.2464 24.6723 52.8698C27.6846 52.3992 32.0147 50.0458 35.0741 47.2218C38.1805 44.3037 41.0516 39.4087 41.5693 36.0199C41.7576 35.0315 42.04 34.2314 42.2282 34.2314C42.4165 34.2314 42.6989 35.0315 42.8872 36.0199Z" fill="url(#paint1_linear_592_298)"/>
<path d="M83.5127 55.3385C83.5127 57.4094 85.16 63.434 86.7603 67.1522C91.0905 77.3187 100.174 86.4496 110.294 90.7327C114.106 92.3801 120.131 94.0274 122.202 94.0274C124.602 94.0274 123.567 94.8275 120.79 95.157C116.789 95.6277 109.447 98.3105 105.069 100.899C97.4445 105.512 90.1962 113.701 86.8074 121.75C85.16 125.562 83.5127 131.587 83.5127 133.658C83.5127 136.058 82.7126 135.023 82.3831 132.246C81.9124 128.245 79.2296 120.903 76.6409 116.525C72.0284 108.901 63.8388 101.652 55.7903 98.2634C51.9779 96.6161 45.9533 94.9687 43.8824 94.9687C43.1764 94.9687 42.5645 94.7334 42.5645 94.4981C42.5645 94.2157 43.1293 94.0274 43.8353 94.0274C45.9533 94.0274 52.1191 92.2859 55.8374 90.7327C65.9097 86.4496 74.9936 77.3187 79.3237 67.1522C80.924 63.434 82.5714 57.4094 82.5714 55.3385C82.5714 54.6325 82.7596 54.0206 83.042 54.0206C83.2774 54.0206 83.5127 54.6325 83.5127 55.3385Z" fill="url(#paint2_linear_592_298)"/>
<defs>
<linearGradient id="paint0_linear_592_298" x1="127.062" y1="53.5947" x2="89.9122" y2="15.7847" gradientUnits="userSpaceOnUse">
<stop stop-color="white"/>
<stop offset="1" stop-color="#D6D6D6"/>
</linearGradient>
<linearGradient id="paint1_linear_592_298" x1="61.4492" y1="72.8262" x2="24.2989" y2="35.0162" gradientUnits="userSpaceOnUse">
<stop stop-color="white"/>
<stop offset="1" stop-color="#D6D6D6"/>
</linearGradient>
<linearGradient id="paint2_linear_592_298" x1="123.543" y1="134.999" x2="45.6012" y2="55.3702" gradientUnits="userSpaceOnUse">
<stop stop-color="white"/>
<stop offset="1" stop-color="#D6D6D6"/>
</linearGradient>
</defs>
</svg>
