<svg width="150" height="150" viewBox="0 0 150 150" fill="none" xmlns="http://www.w3.org/2000/svg">
<path d="M59.2241 38.7621C46.6765 52.8442 38.0654 73.0757 37.2658 74.982L15 65.4504L39.9107 40.5454C42.8015 37.6552 46.9841 36.3639 51.0436 37.1633L59.2241 38.7621ZM71.4027 104.253C71.4027 104.253 94.4066 94.7215 107.631 81.5003C140.845 48.2937 135.309 22.3433 133.526 16.5013C127.682 14.6565 101.726 9.18358 68.5118 42.3903C55.2876 55.6114 45.7539 78.6101 45.7539 78.6101L71.4027 104.253ZM111.26 90.7859C97.1744 103.331 76.9384 111.94 75.0316 112.739L84.5653 135L109.476 110.095C112.367 107.205 113.659 103.023 112.859 98.9646L111.26 90.7859ZM58.0555 110.402C58.0555 115.506 55.9642 120.118 52.6428 123.439C45.3849 130.695 15 135 15 135C15 135 19.3055 104.622 26.5635 97.3658C29.1394 94.777 32.4267 93.0118 36.008 92.2946C39.5893 91.5773 43.303 91.9401 46.6776 93.3371C50.0522 94.7341 52.9354 97.1022 54.9612 100.141C56.9871 103.179 58.0641 106.751 58.0555 110.402ZM82.6586 55.058C82.6586 48.2937 88.1943 42.7592 94.9602 42.7592C101.726 42.7592 107.262 48.2937 107.262 55.058C107.262 61.8223 101.726 67.3568 94.9602 67.3568C88.1943 67.3568 82.6586 61.8223 82.6586 55.058Z" fill="url(#paint0_linear_613_314)"/>
<defs>
<linearGradient id="paint0_linear_613_314" x1="15" y1="15" x2="130.5" y2="133" gradientUnits="userSpaceOnUse">
<stop stop-color="white"/>
<stop offset="1" stop-color="#D6D6D6"/>
</linearGradient>
</defs>
</svg>
