<svg width="150" height="150" viewBox="0 0 150 150" fill="none" xmlns="http://www.w3.org/2000/svg">
<path fill-rule="evenodd" clip-rule="evenodd" d="M57.3764 52.3541C53.9687 76.638 56.3759 88.8621 56.3759 88.8621C66.448 68.7179 132.152 58.6458 132.152 102.292C132.152 132.508 69.8054 142.58 36.2317 129.188C36.2317 129.188 22.8022 129.188 19.4448 125.83C16.7305 123.116 18.5477 111.624 19.2281 107.321C19.3893 106.302 19.4866 105.686 19.4448 105.686C19.4448 75.4327 39.5891 38.5385 39.5891 38.5385H39.6126L39.5891 38.5016C39.5891 38.5016 48.2175 15 71.7191 15C85.1486 15 88.5059 35.1442 85.1486 38.5016L78.4338 41.859C78.4338 41.859 81.7912 45.2163 81.7912 48.5737C81.7912 51.9311 71.7157 55.2884 68.3617 55.2884C66.824 55.2884 62.0767 53.8817 57.3764 52.3541ZM60.148 119.591C60.6449 119.839 69.4244 124.146 80.0942 124.146C83.982 124.146 88.1283 123.572 92.2042 122.021C100.95 118.697 107.531 111.637 111.771 101.044C111.935 100.635 112.016 100.197 112.01 99.756C112.005 99.315 111.912 98.8794 111.738 98.4741C111.564 98.0688 111.312 97.7018 110.996 97.3939C110.68 97.0861 110.307 96.8434 109.898 96.6798C109.488 96.5163 109.05 96.435 108.609 96.4406C108.168 96.4462 107.733 96.5387 107.327 96.7126C106.922 96.8866 106.555 97.1387 106.247 97.4545C105.939 97.7703 105.697 98.1437 105.533 98.5533C102.028 107.313 96.7568 113.094 89.8574 115.73C77.4725 120.462 63.493 113.747 63.1515 113.583L63.1461 113.581C62.3492 113.183 61.427 113.119 60.5823 113.401C59.7377 113.683 59.0398 114.29 58.6422 115.087C58.2447 115.884 58.18 116.806 58.4623 117.65C58.7447 118.495 59.3511 119.193 60.148 119.591Z" fill="url(#paint0_linear_340_610)"/>
<defs>
<linearGradient id="paint0_linear_340_610" x1="18" y1="135" x2="133.479" y2="22.7708" gradientUnits="userSpaceOnUse">
<stop stop-color="white"/>
<stop offset="1" stop-color="#D6D6D6"/>
</linearGradient>
</defs>
</svg>
